<svg xmlns="http://www.w3.org/2000/svg" xmlns:xlink="http://www.w3.org/1999/xlink" width="31" height="31" viewBox="0 0 31 31">
  <defs>
    <clipPath>
      <path d="M0-1054.516H30.754v26.669H0Z" transform="translate(0 1054.516)" fill="#fff"/>
    </clipPath>
    <clipPath>
      <path d="M0-1054.516H26.561v23.341H0Z" transform="translate(0 1054.516)"/>
    </clipPath>
  </defs>
  <g transform="translate(-6880 -5989)">
    <rect width="31" height="31" rx="4" transform="translate(6880 5989)" fill="#2f2d2e"/>
    <g transform="translate(6880.246 5991.713)">
      <g>
        <g clip-path="url(#clip-path)">
          <g transform="translate(7.125 3.843)">
            <path d="M-573.315,0h-13.574c-1.1,0-1.506.4-1.506,1.487V14.6a3.291,3.291,0,0,0,.016.343,1.131,1.131,0,0,0,.253.729c.021.026.25.194.25.194.122.06.206.1.345.158l6.683,2.765A1.541,1.541,0,0,0-580.1,19h0a1.54,1.54,0,0,0,.744-.213l6.683-2.765c.138-.055.222-.1.345-.158,0,0,.228-.168.25-.194a1.131,1.131,0,0,0,.253-.729,3.36,3.36,0,0,0,.016-.343V1.487c0-1.086-.4-1.487-1.5-1.487" transform="translate(588.395 0)" fill="#fff" fill-rule="evenodd"/>
          </g>
          <g transform="translate(9.546 15.388)">
            <path d="M-447.036-63.143v.063l-.006.03-.009.03-.006.028-.009.03-.013.028-.012.024-.013.027-.015.024-.015.024-.018.024-.015.024-.018.021-.021.021-.018.018-.024.021-.021.018-.024.018-.024.015-.024.018-.028.015-.028.012-.028.015-.03.012-.03.012-.03.009-.03.009-.028.009-.03.006-.028.006-.028.006-.03.006h-.439l-.03-.006h-.03l-.03-.006-.03-.006-.03-.006-.03-.006-.03-.009-.028-.006-.03-.009-.03-.009-.028-.012-.03-.009-.028-.009-.03-.012-.028-.012-.028-.012-.028-.015-.028-.012-.028-.015-.024-.015-.028-.015-.024-.015-.024-.015-.024-.018-.024-.018-.024-.018-.024-.018-.021-.018-.024-.021.019-.024.021-.021.019-.024.021-.024.019-.021.018-.024.021-.024.018-.021.021-.024.018-.021.021-.024.018-.024.019-.021.021-.024.019-.024.021-.021.019-.024.024.018.028.018.024.018.028.018.024.015.028.018.024.015.028.012.024.015.028.012.028.012.028.012.028.009.028.012.03.009.03.009.028.009.03.006.03.006.03.006h.034l.03.006h.165l.03-.006.028-.006.028-.006.024-.009.021-.012.024-.018.018-.021.013-.024.009-.027V-63.2l-.013-.03-.015-.021-.021-.018-.024-.018-.024-.012-.028-.012-.03-.012-.037-.015-.021-.006-.024-.006-.028-.009-.028-.006-.03-.009-.03-.006-.034-.009-.03-.006-.034-.009-.03-.006-.03-.009-.03-.006-.03-.009-.028-.009-.03-.006-.028-.009-.028-.009-.028-.009-.034-.012-.03-.012-.03-.012-.03-.012-.028-.015-.03-.015-.024-.015-.028-.015-.024-.018-.024-.015-.021-.018-.021-.021-.021-.021-.019-.021-.018-.021-.015-.021-.015-.024-.015-.027-.013-.021-.009-.024-.009-.028-.009-.024-.006-.03-.006-.028v-.252l.006-.027.006-.028.009-.028.006-.027.013-.028.013-.027.013-.027.015-.028.015-.027.018-.024.019-.024.021-.024.021-.021.021-.024.024-.021.021-.015.024-.018.024-.018.024-.015.028-.015.028-.012.028-.015.028-.012.03-.009.03-.012.028-.009.024-.006.028-.006.028-.006.03-.006.028-.006h.384l.03.006h.034l.03.006.028.006.03.006.03.006.028.006.03.009.028.009.028.006.03.012.028.009.028.012.028.012.03.012.028.015.024.012.028.015.028.015.024.015.028.018.024.015.024.018.024.018.024.018-.018.024-.015.024-.019.024-.019.024-.018.027-.015.024-.019.024-.019.024-.015.024-.019.024-.019.024-.015.024-.018.028-.019.024-.018.024-.015.024-.018.024-.024-.018-.028-.015-.024-.015-.025-.018-.028-.012-.025-.015-.028-.012-.024-.012-.028-.012-.024-.012-.028-.009-.024-.012-.034-.009-.03-.009-.03-.009-.03-.006-.03-.006-.03-.006h-.155l-.034.006-.03.006-.028.006-.024.012-.021.012-.028.024-.019.028-.013.028v.076l.015.033.013.018.021.021.028.015.024.015.03.012.034.012.036.012.024.006.024.009.028.006.028.009.03.006.034.009.034.009.034.009.034.006.03.009.034.009.03.006.03.009.03.009.028.009.03.009.028.009.028.009.034.012.03.015.03.012.03.015.028.015.028.015.024.015.024.018.024.015.024.021.024.021.021.024.021.021.018.024.019.027.015.024.015.028.012.024.009.027.009.028.006.028.006.03.006.03v.136Zm-2.141.6h-1.747v-2.2h1.763v.5h-1.18v.357h1.061v.468h-1.061v.375h1.2v.5Zm-2.23,0h-.558v-1.3l-.015.024-.018.028-.015.024-.018.024-.015.027-.019.024-.015.024-.015.028-.018.024-.015.024-.019.024-.015.028-.019.024-.015.024-.015.028-.019.024-.015.024-.019.027-.015.024-.019.024-.015.028-.015.024-.019.024-.015.028-.019.024-.015.024-.019.024-.015.027-.015.024-.019.024-.015.028-.019.024-.015.024-.018.028-.015.024h-.013l-.019-.028-.015-.024-.018-.028-.015-.024-.018-.027-.015-.024-.018-.028-.015-.024-.019-.027-.015-.024-.019-.028-.015-.024-.019-.028-.015-.024-.018-.028-.015-.024-.018-.028-.019-.024-.015-.028-.018-.024-.015-.028-.018-.024-.015-.028-.018-.024-.015-.028-.019-.024-.015-.028-.019-.024-.015-.027-.019-.024-.015-.028-.018-.024-.015-.028-.018-.024v1.3h-.58v-2.2h.624l.015.024.015.027.018.024.015.028.015.024.015.028.015.024.018.028.015.024.015.024.015.027.015.024.018.027.015.024.015.027.015.024.019.024.015.027.015.024.015.028.015.024.019.027.015.024.015.027.015.024.015.024.019.028.015.024.015.028.015.024.015.028.019.024.015.027.015.024.015-.024.015-.027.018-.024.015-.028.015-.024.015-.028.019-.024.015-.028.015-.024.015-.024.019-.027.015-.024.015-.027.015-.024.019-.028.015-.024.015-.027.015-.024.015-.024.018-.027.015-.024.015-.027.015-.024.019-.027.015-.024.015-.024.015-.028.018-.024.015-.028.015-.024.015-.028.019-.024.015-.027.015-.024h.624v2.2Zm-3.538-.907-.009-.028-.012-.03-.013-.028-.009-.028-.013-.028-.012-.03-.009-.028-.012-.028-.012-.027-.009-.028-.012-.03-.009-.028-.013-.028-.013-.028-.009-.028-.013-.03-.013-.028-.009-.027-.013-.028-.012-.03-.009-.028-.013-.028-.012.028-.009.028-.012.03-.013.028-.009.027-.013.028-.013.03-.012.028-.009.028-.012.028-.013.028-.009.03-.013.028-.013.027-.009.028-.013.028-.012.03-.013.028-.009.028-.013.028-.013.03-.009.028-.012.028h.516Zm.958.907h-.6l-.012-.028-.009-.028-.013-.028-.012-.03-.009-.027-.012-.027-.013-.028-.009-.028-.013-.028-.013-.028-.009-.028-.012-.03-.013-.028-.009-.028-.013-.028h-.875l-.012.028-.009.028-.013.028-.012.03-.009.028-.012.028-.013.028-.009.028-.013.028-.013.027-.009.027-.012.03-.013.028-.009.028-.013.028h-.616l.013-.028.013-.028.012-.028.013-.03.009-.027.013-.027.013-.028.012-.028.013-.028.013-.03.012-.028.012-.027.009-.028.012-.028.012-.028.013-.03.013-.028.013-.028.012-.027.013-.028.009-.028.012-.03.013-.027.013-.028.012-.028.013-.028.013-.028.012-.03.009-.027.012-.028.013-.028.013-.028.013-.028.012-.03.013-.028.013-.028.009-.028.013-.027.012-.028.013-.03.013-.028.012-.028.013-.028.013-.027.009-.028.013-.027.013-.03.012-.027.013-.028.013-.027.012-.027.013-.028.009-.03.013-.027.013-.028.012-.028.013-.028.013-.028.013-.03.012-.027.009-.028.013-.028.013-.028.013-.028.012-.03.012-.028.013-.028.013-.028.009-.027.013-.028.012-.03.013-.027.013-.028.012-.028.013-.028.013-.027.009-.03.013-.028.013-.028.012-.028h.565l.013.028.012.028.013.028.013.03.009.027.013.028.012.028.013.028.013.027.013.03.012.028.013.027.009.028.013.028.013.028.012.03.012.028.013.028.013.028.012.028.009.027.013.03.012.028.013.028.013.028.012.028.013.027.013.03.009.028.012.027.013.027.013.028.012.027.013.03.013.027.012.028.009.027.012.028.013.028.013.028.012.03.013.028.013.027.012.028.009.028.013.028.013.03.012.028.013.028.013.028.012.028.013.027.009.03.012.028.013.028.013.028.012.028.012.027.013.03.013.028.009.028.013.027.012.028.013.028.013.03.013.028.012.028.013.028.009.027.013.028.012.03.013.028.012.028.013.028.013.027.012.027.009.03.012.028.012.028.013.028Zm-2.676-.281-.024.018-.021.015-.025.018-.024.015-.024.018-.025.015-.024.015-.028.015-.028.015-.028.015-.028.012-.028.015-.03.012-.028.012-.03.012-.028.012-.028.009-.028.009-.028.009-.03.009-.028.009-.03.006-.028.006-.03.006-.03.006h-.479l-.03-.006-.03-.006-.028-.006-.03-.006-.028-.009-.03-.006-.028-.009-.028-.012-.028-.009-.03-.012-.028-.012-.028-.012-.028-.012-.028-.015-.024-.015-.028-.015-.024-.015-.024-.015-.025-.018-.024-.018-.024-.018-.021-.018-.021-.018-.021-.021-.021-.018-.021-.021-.021-.021-.019-.021-.018-.024-.019-.021-.015-.024-.018-.024-.015-.024-.015-.024-.015-.028-.015-.024-.012-.028-.013-.028-.012-.028-.013-.027-.009-.024-.013-.028-.006-.028-.009-.027-.006-.03-.009-.028-.006-.03v-.028l-.006-.03V-63.8l.006-.03v-.03l.006-.028.009-.03.006-.03.009-.028.009-.03.009-.028.012-.03.013-.027.013-.028.012-.028.012-.028.015-.028.015-.024.015-.024.015-.024.015-.024.018-.024.019-.024.018-.024.019-.021.021-.021.019-.021.021-.021.021-.021.021-.018.024-.021.021-.018.024-.018.024-.015.024-.018.024-.015.024-.015.028-.015.028-.015.028-.015.028-.012.028-.012.03-.015.024-.009.03-.009.028-.012.028-.006.028-.009.03-.006.028-.009.03-.006h.03l.03-.006h.381l.034.006h.028l.03.006.03.006.028.006.028.006.028.006.028.009.028.006.024.009.028.009.028.012.028.012.028.012.028.015.028.012.024.015.028.015.024.015.028.015.024.018.024.015.024.018.024.018.024.021.024.018-.019.024-.021.021-.019.024-.021.024-.019.024-.018.021-.021.024-.018.024-.019.021-.021.024-.019.024-.021.024-.019.021-.018.024-.021.024-.018.024-.021.021-.018.024-.024-.018-.024-.021-.024-.015-.024-.018-.024-.015-.024-.015-.024-.015-.028-.015-.025-.012-.024-.012-.024-.009-.028-.009-.028-.009-.028-.006-.03-.006-.03-.006h-.22l-.03.006-.028.006-.028.009-.028.009-.028.012-.028.012-.024.015-.024.015-.025.015-.021.018-.021.018-.021.018-.019.021-.021.021-.019.024-.015.021-.015.024-.015.028-.015.024-.013.028-.009.028-.013.028-.009.03-.006.03-.006.027-.006.033v.219l.006.027.006.028.006.027.009.028.009.024.013.03.013.028.015.028.015.024.015.024.018.024.019.021.021.021.019.021.021.018.025.018.024.018.024.015.025.015.028.012.028.012.028.012.03.009.03.009.03.006.03.006h.233l.03-.006.03-.006.03-.009.028-.006.028-.012.024-.012.028-.012.021-.012.036-.016v-.275h-.446v-.439h1.006v.981Z" transform="translate(458.787 64.777)" fill="#fff"/>
          </g>
          <g transform="translate(9.572 6.366)">
            <path d="M-42.676-157.161h1.322v-1.011h-1.322v-2.06H-41.3v-1.009h-2.5v7.283h2.518v-1.009h-1.394Z" transform="translate(43.8 161.241)" fill="#fff"/>
          </g>
          <g transform="translate(17.97 6.296)">
            <path d="M-82.966-167.993v1.644c0,.292-.136.426-.419.426h-.21a.373.373,0,0,1-.43-.426v-4.6c0-.292.136-.426.43-.426h.189a.37.37,0,0,1,.42.426v1.427h1.1v-1.488a1.183,1.183,0,0,0-.339-1.01,1.183,1.183,0,0,0-1.014-.328h-.546a1.2,1.2,0,0,0-1.021.334,1.2,1.2,0,0,0-.343,1.018v4.7a1.2,1.2,0,0,0,.343,1.018,1.2,1.2,0,0,0,1.021.334h.556a1.2,1.2,0,0,0,1.021-.334,1.2,1.2,0,0,0,.343-1.018v-1.695Z" transform="translate(85.158 172.361)" fill="#fff"/>
          </g>
          <path d="M634.658-795.5h1.123v-7.283h-1.123Z" transform="translate(-618.393 809.152)" fill="#fff"/>
          <g transform="translate(12.633 6.351)">
            <path d="M-76.18-124.694c0,.292-.136.426-.419.426h-.462v-2.684h.462c.284,0,.419.136.419.426Zm-.242-3.236h-1.762v7.283h1.123v-2.643h.64a1.2,1.2,0,0,0,1.021-.334,1.2,1.2,0,0,0,.343-1.018v-1.936A1.2,1.2,0,0,0-75.4-127.6a1.2,1.2,0,0,0-1.021-.334" transform="translate(78.184 127.943)" fill="#fff"/>
          </g>
          <g transform="translate(12.221 20.235)">
            <path d="M0,0H6.422L3.146,1.07Z" fill="#fff" fill-rule="evenodd"/>
          </g>
        </g>
      </g>
    </g>
    <g transform="translate(6882.349 5993.462)">
      <g>
        <g clip-path="url(#clip-path-2)">
          <g transform="translate(6.154 3.363)">
            <path d="M-575.371,0h-11.723c-.95,0-1.3.351-1.3,1.3v11.47a2.978,2.978,0,0,0,.014.3,1,1,0,0,0,.219.638c.019.022.216.169.216.169.106.052.178.089.3.138l5.773,2.418a1.317,1.317,0,0,0,.643.186h0a1.317,1.317,0,0,0,.643-.186l5.773-2.418c.12-.048.192-.089.3-.138,0,0,.2-.146.216-.169a1,1,0,0,0,.219-.638,2.96,2.96,0,0,0,.014-.3V1.3c0-.951-.351-1.3-1.3-1.3" transform="translate(588.394 0)" fill="#2f2d2e" fill-rule="evenodd"/>
          </g>
          <g transform="translate(8.241 13.452)">
            <path d="M-448.639-63.35v.056l-.005.027-.008.027-.005.024-.008.027-.011.024-.011.021-.011.024-.013.021-.013.021-.016.021-.013.021-.016.019-.019.019-.016.016-.021.019-.019.016-.021.016-.021.013-.021.016-.024.013-.024.011-.023.013-.027.011-.026.011-.027.008-.026.008-.024.008-.026.005-.024.005-.023.005-.027.005h-.379l-.027-.005h-.026l-.027-.005-.026-.005-.026-.005-.026-.005-.027-.008-.024-.005-.026-.008-.027-.008-.024-.011-.026-.008-.024-.008-.027-.011-.024-.011-.023-.011-.024-.013-.024-.011-.024-.013-.021-.013-.024-.013-.021-.013-.021-.013-.021-.016-.021-.016-.021-.016-.021-.016-.019-.016-.021-.019.016-.021.019-.019.016-.021.019-.021.016-.019.016-.021.019-.021.016-.019.019-.021.016-.019.019-.021.016-.021.016-.019.019-.021.016-.021.019-.019.016-.021.021.016.024.016.021.016.024.016.021.013.024.016.021.013.024.011.021.013.024.011.024.011.023.011.024.008.024.011.026.008.027.008.023.008.027.005.026.005.026.005h.029l.027.005h.142l.027-.005.023-.005.024-.005.021-.008.019-.011.021-.016.016-.019.011-.021.008-.024V-63.4l-.011-.027-.013-.019-.019-.016-.021-.016-.021-.011-.023-.011-.027-.011-.031-.013-.019-.005-.021-.005-.024-.008-.024-.005-.026-.008-.027-.005-.029-.008-.027-.005-.029-.008-.026-.005-.027-.008-.026-.005-.027-.008-.024-.008-.026-.005-.024-.008-.023-.008-.024-.008-.029-.011-.026-.011-.027-.011-.027-.011-.023-.013-.027-.013-.021-.013-.024-.013-.021-.016-.021-.013-.019-.016-.019-.019-.019-.019-.016-.019-.016-.019-.013-.019-.013-.021-.013-.024-.011-.019-.008-.021-.008-.024-.008-.021-.005-.027-.005-.024v-.221l.005-.024.005-.024.008-.024.005-.024.011-.024.011-.024.011-.024.013-.024.013-.024.016-.021.016-.021.019-.021.019-.019.019-.021.021-.019.019-.013.021-.016.021-.016.021-.013.024-.013.024-.011.023-.013.024-.011.026-.008.026-.011.024-.008.021-.005.024-.005.024-.005.026-.005.024-.005h.33l.027.005h.029l.027.005.024.005.026.005.026.005.024.005.027.008.023.008.024.005.027.011.024.008.023.011.024.011.027.011.023.013.021.011.024.013.024.013.021.013.024.016.021.013.021.016.021.016.021.016-.016.021-.013.021-.016.021-.016.021-.016.024-.013.021-.016.021-.016.021-.013.021-.016.021-.016.021-.013.021-.016.024-.016.021-.016.021-.013.021-.016.021-.021-.016-.023-.013-.021-.013-.021-.016-.024-.011-.021-.013-.023-.011-.021-.011-.024-.011-.021-.011-.023-.008-.021-.011-.029-.008-.026-.008-.026-.008-.027-.005-.026-.005-.026-.005h-.134l-.029.005-.027.005-.023.005-.021.011-.019.011-.024.021-.016.024-.011.024v.067l.013.029.011.016.019.019.024.013.021.013.026.011.029.011.031.011.021.005.021.008.024.005.023.008.027.005.029.008.029.008.029.008.029.005.027.008.029.008.027.005.026.008.026.008.023.008.027.008.024.008.023.008.029.011.026.013.026.011.027.013.024.013.024.013.021.013.021.016.021.013.021.019.021.019.019.021.019.019.016.021.016.024.013.021.013.024.011.021.008.024.008.024.005.024.005.027.005.027v.12Zm-1.847.529H-452v-1.926h1.523v.437h-1.02v.315h.917v.41h-.917v.328h1.033v.436Zm-1.925,0h-.482V-63.96l-.013.021-.016.024-.013.021-.016.021-.013.024-.016.021-.013.021-.013.024-.016.021-.013.021-.016.021-.013.024-.016.021-.013.021-.013.024-.016.021-.013.021-.016.024-.013.021-.016.021-.013.024-.013.021-.016.021-.013.024-.016.021-.013.021-.016.021-.013.024-.013.021-.016.021-.013.024-.016.021-.013.021-.016.024-.013.021h-.011l-.016-.024-.013-.021-.016-.024-.013-.021-.016-.024-.013-.021-.016-.024-.013-.021-.016-.024-.013-.021-.016-.024-.013-.021-.016-.024-.013-.021-.016-.024-.013-.021-.016-.024-.016-.021-.013-.024-.016-.021-.013-.024-.016-.021-.013-.024-.016-.021-.013-.024-.016-.021-.013-.024-.016-.021-.013-.024-.016-.021-.013-.024-.016-.021-.013-.024-.016-.021v1.134h-.5v-1.926h.54l.013.021.013.024.016.021.013.024.013.021.013.024.013.021.016.024.013.021.013.021.013.024.013.021.016.024.013.021.013.024.013.021.016.021.013.024.013.021.013.024.013.021.016.024.013.021.013.024.013.021.013.021.016.024.013.021.013.024.013.021.013.024.016.021.013.023.013.021.013-.021.013-.023.016-.021.013-.024.013-.021.013-.024.016-.021.013-.024.013-.021.013-.021.016-.024.013-.021.013-.024.013-.021.016-.024.013-.021.013-.024.013-.021.013-.021.016-.024.013-.021.013-.024.013-.021.016-.024.013-.021.013-.021.013-.024.016-.021.013-.024.013-.021.013-.024.016-.021.013-.024.013-.021h.54v1.926Zm-3.057-.794-.008-.024-.011-.027-.011-.024-.008-.024-.011-.024-.011-.027-.008-.024-.011-.024-.011-.024-.008-.024-.011-.027-.008-.024-.011-.024-.011-.024-.008-.024-.011-.027-.011-.024-.008-.024-.011-.024-.011-.027-.008-.024-.011-.024-.011.024-.008.024-.011.027-.011.024-.008.024-.011.024-.011.027-.011.024-.008.024-.011.024-.011.024-.008.027-.011.024-.011.024-.008.024-.011.024-.011.027-.011.024-.008.024-.011.024-.011.027-.008.024-.011.024h.446Zm.827.794h-.516l-.011-.024-.008-.024-.011-.024-.011-.027-.008-.024-.011-.024-.011-.024-.008-.024-.011-.024-.011-.024-.008-.024-.011-.027-.011-.024-.008-.024-.011-.024h-.756l-.011.024-.008.024-.011.024-.011.027-.008.024-.011.024-.011.024-.008.024-.011.024-.011.024-.008.024-.011.027-.011.024-.008.024-.011.024h-.535l.011-.024.011-.024.011-.024.011-.027.008-.024.011-.024.011-.024.011-.024.011-.024.011-.027.011-.024.011-.024.008-.024.011-.024.011-.024.011-.027.011-.024.011-.024.011-.024.011-.024.008-.024.011-.027.011-.024.011-.024.011-.024.011-.024.011-.024.011-.027.008-.024.011-.024.011-.024.011-.024.011-.024.011-.027.011-.024.011-.024.008-.024.011-.024.011-.024.011-.027.011-.024.011-.024.011-.024.011-.024.008-.024.011-.023.011-.027.011-.024.011-.024.011-.024.011-.024.011-.024.008-.027.011-.024.011-.024.011-.024.011-.024.011-.024.011-.027.011-.024.008-.024.011-.024.011-.024.011-.024.011-.027.011-.024.011-.024.011-.024.008-.024.011-.024.011-.027.011-.024.011-.024.011-.024.011-.024.011-.024.008-.027.011-.024.011-.024.011-.024h.487l.011.024.011.024.011.024.011.027.008.024.011.024.011.024.011.024.011.024.011.027.011.024.011.024.008.024.011.024.011.024.011.027.011.024.011.024.011.024.011.024.008.024.011.027.011.024.011.024.011.024.011.024.011.024.011.027.008.024.011.024.011.024.011.024.011.024.011.027.011.023.011.024.008.024.011.024.011.024.011.024.011.027.011.024.011.024.011.024.008.024.011.024.011.027.011.024.011.024.011.024.011.024.011.024.008.027.011.024.011.024.011.024.011.024.011.024.011.027.011.024.008.024.011.024.011.024.011.024.011.027.011.024.011.024.011.024.008.024.011.024.011.027.011.024.011.024.011.024.011.024.011.024.008.027.011.024.011.024.011.024Zm-2.307-.246-.021.016-.019.013-.021.016-.021.013-.021.016-.021.013-.021.013-.024.013-.024.013-.023.013-.024.011-.023.013-.026.011-.023.011-.027.011-.023.011-.024.008-.024.008-.024.008-.026.008-.023.008-.027.005-.024.005-.026.005-.027.005h-.413l-.027-.005-.026-.005-.024-.005-.027-.005-.024-.008-.026-.005-.024-.008-.024-.011-.024-.008-.026-.011-.024-.011-.024-.011-.023-.011-.024-.013-.021-.013-.024-.013-.021-.013-.021-.013-.021-.016-.021-.016-.021-.016-.019-.016-.019-.016-.019-.019-.019-.016-.019-.019-.019-.019-.016-.019-.016-.021-.016-.019-.013-.021-.016-.021-.013-.021-.013-.021-.013-.024-.013-.021-.011-.024-.011-.024-.011-.024-.011-.024-.008-.021-.011-.024-.005-.024-.008-.024-.005-.027-.008-.024-.005-.027V-63.6l-.005-.027v-.306l.005-.026v-.027l.005-.024.008-.027.005-.027.008-.024.008-.027.008-.024.011-.027.011-.024.011-.024.011-.024.011-.024.013-.024.013-.021.013-.021.013-.021.013-.021.016-.021.016-.021.016-.021.016-.019.019-.019.016-.019.019-.019.019-.019.019-.016.021-.019.019-.016.021-.016.021-.013.021-.016.021-.013.021-.013.024-.013.024-.013.024-.013.023-.011.024-.011.027-.013.021-.008.026-.008.024-.011.023-.005.023-.008.027-.005.024-.008.026-.005h.026l.027-.005h.329l.029.005h.024l.026.005.027.005.024.005.024.005.024.005.024.008.023.005.021.008.024.008.024.011.024.011.024.011.024.013.023.011.021.013.023.013.021.013.024.013.021.016.021.013.021.016.021.016.021.019.021.016-.016.021-.019.019-.016.021-.019.021-.016.021-.016.019-.019.021-.016.021-.016.019-.019.021-.016.021-.019.021-.016.019-.016.021-.019.021-.016.021-.019.019-.016.021-.021-.016-.021-.019-.021-.013-.021-.016-.021-.013-.021-.013-.021-.013-.024-.013-.021-.011-.021-.011-.021-.008-.024-.008-.023-.008-.024-.005-.026-.005-.027-.005h-.189l-.026.005-.024.005-.024.008-.023.008-.024.011-.024.011-.021.013-.021.013-.021.013-.019.016-.019.016-.019.016-.016.019-.019.019-.016.021-.013.019-.013.021-.013.024-.013.021-.011.024-.008.024-.011.024-.008.027-.005.027-.005.024-.005.029v.192l.005.024.005.024.005.024.008.024.008.021.011.027.011.024.013.024.013.021.013.021.016.021.016.019.019.019.016.019.019.016.021.016.021.016.021.013.021.013.024.011.023.011.024.011.027.008.026.008.027.005.026.005h.2l.027-.005.027-.005.026-.008.023-.005.024-.011.021-.011.023-.011.019-.011.021-.013v-.241h-.384v-.386h.87v.86Z" transform="translate(458.792 64.793)" fill="#fff"/>
          </g>
          <g transform="translate(8.267 5.573)">
            <path d="M-42.83-157.67h1.142v-.883H-42.83v-1.8h1.187v-.883H-43.8v6.373h2.175v-.883H-42.83Z" transform="translate(43.8 161.239)" fill="#fff"/>
          </g>
          <g transform="translate(15.522 5.508)">
            <path d="M-83.262-168.537v1.439c0,.255-.118.373-.362.373H-83.8a.325.325,0,0,1-.281-.091.325.325,0,0,1-.091-.282v-4.024a.325.325,0,0,1,.091-.282.325.325,0,0,1,.281-.091h.163c.244,0,.362.119.362.373v1.249h.952v-1.3a1.028,1.028,0,0,0-.287-.883,1.028,1.028,0,0,0-.881-.292h-.471a1.041,1.041,0,0,0-.886.3,1.041,1.041,0,0,0-.292.888v4.115a1.041,1.041,0,0,0,.292.888,1.041,1.041,0,0,0,.886.3h.48a1.041,1.041,0,0,0,.886-.3,1.041,1.041,0,0,0,.292-.888v-1.484Z" transform="translate(85.155 172.363)" fill="#fff"/>
          </g>
          <path d="M634.658-796.411h.97v-6.373h-.97Z" transform="translate(-620.611 808.357)" fill="#fff"/>
          <g transform="translate(10.909 5.56)">
            <path d="M-76.454-125.095c0,.255-.118.374-.362.374h-.4v-2.349h.4c.244,0,.362.119.362.373Zm-.209-2.832h-1.523v6.373h.968v-2.313h.553a1.041,1.041,0,0,0,.886-.3,1.041,1.041,0,0,0,.292-.888v-1.695a1.041,1.041,0,0,0-.292-.888,1.041,1.041,0,0,0-.886-.3" transform="translate(78.185 127.939)" fill="#fff"/>
          </g>
          <g transform="translate(10.555 17.708)">
            <path d="M0,0H5.55L2.717.934Z" fill="#fff" fill-rule="evenodd"/>
          </g>
        </g>
      </g>
    </g>
  </g>
</svg>
