<svg xmlns="http://www.w3.org/2000/svg" width="31" height="31" viewBox="0 0 31 31">
  <g transform="translate(-6987 -5911)">
    <rect width="31" height="31" rx="4" transform="translate(6987 5911)"/>
    <g transform="translate(6993 5902.5)">
      <path d="M18.5,21.842A1.851,1.851,0,1,1,16.653,20,1.851,1.851,0,0,1,18.5,21.842Zm-.746,3.116-2.241,1.91a2.952,2.952,0,0,1-5.795,1.117l-5.54-1.873a2.6,2.6,0,1,1,.965-2.653L10.5,25.268a2.95,2.95,0,0,1,2.037-.874l.8-2.428c0-.048-.007-.1-.007-.144a3.335,3.335,0,1,1,4.428,3.136Zm-13.511-1.8a1.82,1.82,0,1,0-1.061,2.621l-.868-.293A1.431,1.431,0,0,1,3.67,22.965Zm9.817-1.325a2.59,2.59,0,1,0,2.59-2.581,2.59,2.59,0,0,0-2.59,2.581Zm.051,5.757a1.968,1.968,0,0,0-1.972-1.964,1.992,1.992,0,0,0-.443.052l1.1.372a1.431,1.431,0,0,1-1.356,2.521l-1.188-.4a1.973,1.973,0,0,0,3.856-.579Z" fill="#fff"/>
    </g>
  </g>
</svg>
