<svg xmlns="http://www.w3.org/2000/svg" xmlns:xlink="http://www.w3.org/1999/xlink" viewBox="0,0,256,256" width="48px" height="48px" fill-rule="nonzero"><g fill="none" fill-rule="nonzero" stroke="none" stroke-width="1" stroke-linecap="butt" stroke-linejoin="miter" stroke-miterlimit="10" stroke-dasharray="" stroke-dashoffset="0" font-family="none" font-weight="none" font-size="none" text-anchor="none" style="mix-blend-mode: normal"><g transform="scale(5.33333,5.33333)"><path d="M42,27.676c-3,3.441 -6,6.882 -9,10.324c-2.333,0 -4.667,0 -7,0c-2.333,2 -4.667,4 -7,6c-1,0 -2,0 -3,0c0,-2 0,-4 0,-6c-3.333,0 -6.667,0 -10,0c0,-7.431 0,-14.863 0,-22.294c1.455,-2.902 2.909,-5.804 4.364,-8.706c10.545,0 21.091,0 31.636,0c0,6.892 0,13.784 0,20.676z" fill="#7e22ce"></path><path d="M39,26.369c-1.667,1.877 -3.333,3.754 -5,5.631c-2.333,0 -4.667,0 -7,0c-2.333,2 -4.667,4 -7,6c0,-2 0,-4 0,-6c-2.667,-0.008 -5.333,-0.016 -8,-0.024c0,-7.326 0,-14.651 0,-21.976c9,0 18,0 27,0c0,5.456 0,10.912 0,16.369z" fill="#fafafa"></path><rect x="21" y="16" width="3" height="10" fill="#7e22ce"></rect><rect x="30" y="16" width="3" height="10" fill="#7e22ce"></rect></g></g></svg>